<?xml version="1.0" encoding="utf-8"?>
<svg width="1132" height="384" viewBox="0 0 888.774 138.903" fill="none" xmlns="http://www.w3.org/2000/svg" xmlns:bx="https://boxy-svg.com">
  <defs>
    <bx:export>
      <bx:file format="svg"/>
    </bx:export>
  </defs>
  <path d="M 116.851 54.71 L 116.787 55.06 C 116.796 55.057 116.806 55.056 116.815 55.054 L 114.145 69.496 L 111.933 81.589 C 111.926 81.587 111.919 81.585 111.912 81.583 L 111.847 81.933 L 55.457 131.236 L 3.813 131.236 C 17.585 101.61 38.215 81.765 66.977 68.325 C 43.156 54.886 29.826 35.034 26.95 5.406 L 78.593 5.406 L 116.851 54.71 Z M 196.834 54.71 L 196.77 55.06 C 196.779 55.057 196.788 55.056 196.796 55.054 L 194.271 68.717 L 191.916 81.589 C 191.908 81.587 191.901 81.585 191.893 81.583 L 191.829 81.933 L 135.438 131.236 L 83.794 131.236 C 97.567 101.609 118.197 81.765 146.959 68.325 C 123.139 54.886 109.809 35.034 106.933 5.406 L 158.577 5.406 L 196.834 54.71 Z M 276.81 54.71 L 276.746 55.06 C 276.755 55.057 276.765 55.056 276.774 55.054 L 274.085 69.6 L 271.891 81.589 C 271.884 81.587 271.878 81.585 271.871 81.583 L 271.806 81.933 L 215.416 131.236 L 163.772 131.236 C 177.544 101.609 198.174 81.765 226.936 68.325 C 203.115 54.886 189.785 35.035 186.909 5.406 L 238.552 5.406 L 276.81 54.71 Z" fill="#0F0F0F"/>
  <path d="M 825.917 0.664 C 866.882 0.664 893.103 33.841 885.873 74.161 C 879.627 111.273 850.921 135.975 813.172 135.975 C 772.208 135.974 745.991 102.797 753.212 62.476 C 759.706 25.365 787.927 0.664 825.917 0.664 Z M 479.205 2.42 C 494.437 2.42 506.211 8.171 514.404 21.369 L 516.407 20.885 C 516.65 15.376 517.439 11.441 518.41 5.447 L 559.617 5.447 L 537.101 131.555 L 496.137 131.555 C 497.108 126.046 498.139 122.11 499.414 116.602 L 497.168 115.875 C 486.427 129.073 473.439 134.34 461.18 134.34 C 424.707 134.34 408.685 99.468 415.482 61.569 L 415.482 61.448 C 421.247 28.09 444.734 2.42 479.205 2.42 Z M 348.49 83.425 L 387.512 5.387 L 431.753 5.387 L 431.753 5.871 L 362.023 131.494 L 318.813 131.494 L 293.809 5.871 L 294.052 5.387 L 337.504 5.387 L 348.49 83.425 Z M 714.25 2.359 C 743.987 2.359 754.729 26.757 749.752 56.181 L 736.28 131.434 L 694.284 131.434 L 707.028 59.874 C 709.031 48.189 705.025 39.956 694.041 39.956 C 683.784 39.956 677.533 47.705 675.834 58.118 L 662.846 131.373 L 621.396 131.373 L 633.898 59.813 C 636.143 48.129 631.895 39.895 621.396 39.895 C 610.897 39.896 604.647 47.887 602.644 58.36 L 589.899 131.373 L 547.903 131.373 L 570.358 5.387 L 611.322 5.387 C 610.351 11.138 609.319 15.134 607.802 20.824 L 609.805 21.309 C 618.787 9.321 630.561 2.359 645.308 2.359 C 660.055 2.359 670.554 9.322 674.802 21.551 L 677.534 21.551 C 686.516 8.353 700.291 2.359 714.25 2.359 Z M 822.944 38.563 C 806.437 38.563 796.18 49.763 793.449 65.988 C 790.172 83.182 799.457 98.136 815.661 98.136 C 831.864 98.136 842.667 86.694 845.398 70.711 L 845.459 70.711 C 848.736 53.517 839.451 38.564 822.944 38.563 Z M 484.727 39.774 C 469.737 39.775 459.238 50.732 456.507 65.443 C 453.534 82.879 462.273 96.864 478.719 96.864 C 493.709 96.864 504.451 85.907 506.939 70.711 C 510.216 53.033 501.416 39.774 484.727 39.774 Z" fill="#0F0F0F"/>
</svg>